<?xml version="1.0" encoding="UTF-8" standalone="no"?>
<svg xmlns="http://www.w3.org/2000/svg" width="128" height="128" viewBox="0 0 128 128">
  <rect width="128" height="128" fill="#000000"/>
  <text x="64" y="70" font-family="Arial, sans-serif" font-size="16" font-weight="bold" fill="#FFFFFF" text-anchor="middle">SPRINTIA</text>
  <path d="M 90,50 C 100,60 105,70 100,80 S 80,90 70,85 S 60,75 65,65 S 80,55 90,50" stroke="#00FFCC" fill="none" stroke-width="1.5"/>
  <path d="M 85,45 C 95,55 100,65 95,75 S 75,85 65,80 S 55,70 60,60 S 75,50 85,45" stroke="#00FF99" fill="none" stroke-width="1.5"/>
  <circle cx="90" cy="50" r="2" fill="#00FFCC"/>
  <circle cx="70" cy="85" r="2" fill="#00FFCC"/>
  <circle cx="65" cy="65" r="2" fill="#00FFCC"/>
  <circle cx="80" cy="70" r="2" fill="#00FF99"/>
  <circle cx="75" cy="50" r="2" fill="#00FF99"/>
</svg>
